<?xml version="1.0" encoding="UTF-8"?>
<svg id="Camada_1" data-name="Camada 1" xmlns="http://www.w3.org/2000/svg" version="1.1" viewBox="0 0 764.4 142.8">
  <defs>
    <style>
      .cls-1 {
        fill: #fff;
        stroke-width: 0px;
      }
    </style>
  </defs>
  <path class="cls-1" d="M31.1,139.8v-59.4H6.8c.5-.5.8-.8,1.1-1.1,7.4-7.5,14.8-15,22.3-22.5.7-.7,1-1.4,1-2.4,0-17.6,0-35.2,0-52.8V0c.5,0,.9,0,1.3,0,24.2,0,48.4,0,72.6,0,8.7,0,16.9,1.8,24.3,6.6,9,5.9,14,14.3,15.3,24.9.8,6.2.5,12.3-1.7,18.2-2.5,6.6-6.9,11.6-13.3,14.8-.4.2-.7.4-1.1.5,0,0,0,0-.2.2.5.2.8.3,1.2.5,11,4.1,18.9,11.3,21.7,22.8,3.3,13.1,1.6,25.6-7,36.4-6.2,7.8-14.4,12.3-24.2,13.9-3.6.6-7.4.9-11.1.9-25.4,0-50.9,0-76.3,0h-1.6ZM56.8,115.3c.3,0,.5,0,.8,0,16.8,0,33.7,0,50.5,0,3.5,0,6.8-.9,9.9-2.5,11.7-6.3,12.5-21.6,1.5-29-3.8-2.5-8-3.4-12.5-3.4-16.3,0-32.5,0-48.8,0-.4,0-.8,0-1.3,0v34.8ZM56.9,24.5v31.3c.4,0,.8,0,1.1,0,14.7,0,29.3,0,44,0,1.6,0,3.2-.2,4.8-.4,6.7-1.2,12.6-6.8,12.7-14.9.1-7.2-4.6-13.6-11.7-15.3-2-.5-4.2-.7-6.3-.7-14.4,0-28.9,0-43.3,0h-1.3Z"/>
  <path class="cls-1" d="M252.7,45.1c.1-4.5.3-8.7.4-13h22.9v107.7h-22.9v-13c-.4.5-.7.8-.9,1-6.8,7.9-15.6,12.5-25.7,14.2-13.3,2.2-26.1.4-37.6-6.9-14.4-9.2-23.2-22.4-25.9-39.4-2.1-13-.4-25.5,6.3-37,7.2-12.5,17.1-22,30.9-26.6,12.1-4,24.2-4.3,36.3.3,6.4,2.5,11.7,6.5,15.7,12.1.1.2.2.3.5.6ZM220.6,120.8c4.4,0,8.8-.7,12.9-2.7,12-5.9,19-15.4,20.2-28.9.8-8.8-1.2-17-6.5-24.2-12.1-16.5-31.4-16.8-43.5-9.6-12.1,7.2-19.2,20.4-16.8,36.6,2.1,14,15.3,29,33.7,28.7Z"/>
  <path class="cls-1" d="M624.1,105.5c6.5,3.6,12.9,7.2,19.3,10.8-2.7,3.5-5.6,6.7-8.8,9.6-8.4,7.5-17.9,13.2-29.1,15.4-23.9,4.8-50.6-3.3-64.4-28.9-5.1-9.5-6.9-19.7-6.2-30.4,1.3-19.8,10.9-34.6,27.4-45,7.3-4.6,15.4-6.8,24-7.7,8.5-.9,16.8-.5,24.8,2.7,19.9,8,32.5,22.3,36.9,43.5,1.3,6,1.4,12.1,1.2,18.4h-88.7c0,3.5.6,6.8,2,9.9,2.8,6.4,7.8,10.8,13.7,14.1,13.2,7.3,29.6,5.2,41-5.1,1.2-1.1,2.4-2.3,3.6-3.6,1.1-1.2,2.1-2.5,3.3-3.8ZM622.3,74.8c-4.9-16.9-17.1-26.3-34.8-24.8-14.8,1.2-24.6,12.5-26.8,24.8h61.6Z"/>
  <path class="cls-1" d="M689.8,139.8h-22.9V32.1h22.9v13.1c.1,0,.3.2.4.3,0-.2,0-.4.1-.6,6.6-9,15.6-14.1,26.7-15.4,10.1-1.2,19.6.4,28,6.3,10.6,7.4,16.9,17.6,18.8,30.5.5,3.2.6,6.5.7,9.8,0,20.7,0,41.4,0,62.2s0,.9,0,1.5h-23c0-.5,0-.9,0-1.4,0-19.8,0-39.7,0-59.5,0-3.4-.5-6.9-1.4-10.3-2-7.9-7.1-13-15-15.1-6-1.6-12.1-1.8-18,.1-9.5,3-15,9.7-16.7,19.4-.4,2.4-.5,4.8-.5,7.2,0,19.4,0,38.7,0,58.1s0,1,0,1.5Z"/>
  <path class="cls-1" d="M485.5,53.9h-47.1v-21.9h85.5c-17.3,28.7-34.5,57.2-51.8,85.9h50.5v21.7h-88.7c17.2-28.6,34.3-57.1,51.6-85.8Z"/>
  <path class="cls-1" d="M424.2,124.4c-3.4,6.1-6.8,12.2-10.2,18.2-.2,0-.4,0-.5-.1-7.4-3.6-14.6-7.5-21.1-12.5-7.4-5.6-11.3-13.2-12.4-22.3-.3-2.8-.5-5.7-.5-8.5,0-14.6,0-29.3,0-43.9v-1.4h-19.5c1.1-3.8,2.1-7.5,3.2-11.2.9-3.3,1.9-6.5,2.8-9.8.2-.8.5-1.1,1.4-1.1,3.6,0,7.1,0,10.7,0,.4,0,.9,0,1.4,0V0h22.8v31.9h18.2v22h-18.2c0,.3,0,.5,0,.8,0,14.6,0,29.1,0,43.7,0,2.5.4,5,.8,7.5.9,5,3.9,8.5,8.1,11,3.9,2.3,7.9,4.6,11.8,6.8.3.2.7.4,1.1.7Z"/>
  <path class="cls-1" d="M316.4,139.8h-22.9V32.1h21.4v11.3c0,0,.1,0,.2,0,.2-.4.4-.8.6-1.1,2.7-5,6.2-9.3,11.6-11.5,6.9-2.7,13.9-2.4,20.7.6.8.4,1,.8.7,1.6-2,6.9-3.9,13.7-5.8,20.4-2.5-.7-4.9-1.5-7.4-2-3.3-.6-6.5-.1-9.5,1.5-4.8,2.7-8.4,6.3-9.4,12-.2,1.4-.3,2.9-.3,4.3,0,23,0,46,0,69v1.5Z"/>
  <path class="cls-1" d="M24,55.8c-8,8.3-15.9,16.4-24,24.6v-24.6h24Z"/>
</svg>